<svg width="16" height="16" viewBox="0 0 16 16" fill="none" xmlns="http://www.w3.org/2000/svg">
<circle cx="8" cy="8" r="8" fill="#1CBEF5" fill-opacity="0.6"/>
<path d="M9.83337 7.56658H8.70003V6.43324C8.70003 6.28295 8.64033 6.13882 8.53406 6.03255C8.42779 5.92628 8.28366 5.86658 8.13337 5.86658C7.98308 5.86658 7.83894 5.92628 7.73267 6.03255C7.6264 6.13882 7.5667 6.28295 7.5667 6.43324L7.58682 7.56658H6.43337C6.28308 7.56658 6.13894 7.62628 6.03267 7.73255C5.9264 7.83882 5.8667 7.98295 5.8667 8.13324C5.8667 8.28353 5.9264 8.42767 6.03267 8.53394C6.13894 8.64021 6.28308 8.69991 6.43337 8.69991L7.58682 8.67979L7.5667 9.83324C7.5667 9.98353 7.6264 10.1277 7.73267 10.2339C7.83894 10.3402 7.98308 10.3999 8.13337 10.3999C8.28366 10.3999 8.42779 10.3402 8.53406 10.2339C8.64033 10.1277 8.70003 9.98353 8.70003 9.83324V8.67979L9.83337 8.69991C9.98366 8.69991 10.1278 8.64021 10.2341 8.53394C10.3403 8.42767 10.4 8.28353 10.4 8.13324C10.4 7.98295 10.3403 7.83882 10.2341 7.73255C10.1278 7.62628 9.98366 7.56658 9.83337 7.56658Z" fill="white" fill-opacity="0.68"/>
</svg>
