<svg width="16" height="17" viewBox="0 0 16 17" fill="none" xmlns="http://www.w3.org/2000/svg">
<path d="M4.25 10.75C4.58152 10.75 4.89946 10.6183 5.13388 10.3839C5.3683 10.1495 5.5 9.83152 5.5 9.5C5.5 9.16848 5.3683 8.85054 5.13388 8.61612C4.89946 8.3817 4.58152 8.25 4.25 8.25C3.91848 8.25 3.60054 8.3817 3.36612 8.61612C3.1317 8.85054 3 9.16848 3 9.5C3 9.83152 3.1317 10.1495 3.36612 10.3839C3.60054 10.6183 3.91848 10.75 4.25 10.75ZM4.25 14.25C4.58152 14.25 4.89946 14.1183 5.13388 13.8839C5.3683 13.6495 5.5 13.3315 5.5 13C5.5 12.6685 5.3683 12.3505 5.13388 12.1161C4.89946 11.8817 4.58152 11.75 4.25 11.75C3.91848 11.75 3.60054 11.8817 3.36612 12.1161C3.1317 12.3505 3 12.6685 3 13C3 13.3315 3.1317 13.6495 3.36612 13.8839C3.60054 14.1183 3.91848 14.25 4.25 14.25ZM9 9.5C9 9.83152 8.8683 10.1495 8.63388 10.3839C8.39946 10.6183 8.08152 10.75 7.75 10.75C7.41848 10.75 7.10054 10.6183 6.86612 10.3839C6.6317 10.1495 6.5 9.83152 6.5 9.5C6.5 9.16848 6.6317 8.85054 6.86612 8.61612C7.10054 8.3817 7.41848 8.25 7.75 8.25C8.08152 8.25 8.39946 8.3817 8.63388 8.61612C8.8683 8.85054 9 9.16848 9 9.5ZM7.75 14.25C8.08152 14.25 8.39946 14.1183 8.63388 13.8839C8.8683 13.6495 9 13.3315 9 13C9 12.6685 8.8683 12.3505 8.63388 12.1161C8.39946 11.8817 8.08152 11.75 7.75 11.75C7.41848 11.75 7.10054 11.8817 6.86612 12.1161C6.6317 12.3505 6.5 12.6685 6.5 13C6.5 13.3315 6.6317 13.6495 6.86612 13.8839C7.10054 14.1183 7.41848 14.25 7.75 14.25ZM12.5 9.5C12.5 9.83152 12.3683 10.1495 12.1339 10.3839C11.8995 10.6183 11.5815 10.75 11.25 10.75C10.9185 10.75 10.6005 10.6183 10.3661 10.3839C10.1317 10.1495 10 9.83152 10 9.5C10 9.16848 10.1317 8.85054 10.3661 8.61612C10.6005 8.3817 10.9185 8.25 11.25 8.25C11.5815 8.25 11.8995 8.3817 12.1339 8.61612C12.3683 8.85054 12.5 9.16848 12.5 9.5Z" fill="#1E58F0"/>
<path fill-rule="evenodd" clip-rule="evenodd" d="M3.75 0C3.94891 0 4.13968 0.0790175 4.28033 0.21967C4.42098 0.360322 4.5 0.551088 4.5 0.75V1.5H11V0.75C11 0.551088 11.079 0.360322 11.2197 0.21967C11.3603 0.0790175 11.5511 0 11.75 0C11.9489 0 12.1397 0.0790175 12.2803 0.21967C12.421 0.360322 12.5 0.551088 12.5 0.75V1.508C12.652 1.512 12.7937 1.51933 12.925 1.53C13.305 1.56 13.661 1.628 13.998 1.8C14.5156 2.06367 14.9363 2.48445 15.2 3.002C15.372 3.339 15.44 3.695 15.47 4.075C15.5 4.44 15.5 4.885 15.5 5.42V13.08C15.5 13.615 15.5 14.06 15.47 14.425C15.44 14.805 15.372 15.161 15.2 15.498C14.9366 16.0154 14.5162 16.4362 13.999 16.7C13.661 16.872 13.305 16.94 12.925 16.97C12.56 17 12.115 17 11.581 17H3.92C3.385 17 2.94 17 2.575 16.97C2.195 16.94 1.839 16.872 1.502 16.7C0.984751 16.4369 0.56401 16.0168 0.3 15.5C0.128 15.162 0.0600002 14.806 0.0300002 14.426C2.10479e-07 14.061 0 13.616 0 13.082V5.42C0 4.885 2.10479e-07 4.44 0.0300002 4.075C0.0600002 3.695 0.128 3.339 0.3 3.002C0.563671 2.48445 0.984446 2.06367 1.502 1.8C1.839 1.628 2.195 1.56 2.575 1.53C2.70633 1.51933 2.848 1.512 3 1.508V0.75C3 0.651509 3.0194 0.553982 3.05709 0.462987C3.09478 0.371993 3.15003 0.289314 3.21967 0.21967C3.28931 0.150026 3.37199 0.0947813 3.46299 0.0570903C3.55398 0.0193993 3.65151 0 3.75 0ZM14 7H1.5V13.05C1.5 13.622 1.5 14.007 1.525 14.302C1.548 14.59 1.59 14.727 1.636 14.817C1.756 15.053 1.947 15.244 2.183 15.364C2.273 15.41 2.41 15.452 2.697 15.475C2.993 15.499 3.377 15.5 3.95 15.5H11.55C12.122 15.5 12.507 15.5 12.802 15.475C13.09 15.452 13.227 15.41 13.317 15.364C13.5526 15.2441 13.7441 15.0526 13.864 14.817C13.91 14.727 13.952 14.59 13.975 14.302C13.999 14.007 14 13.622 14 13.05V7ZM6.25 3.75C6.05109 3.75 5.86032 3.82902 5.71967 3.96967C5.57902 4.11032 5.5 4.30109 5.5 4.5C5.5 4.69891 5.57902 4.88968 5.71967 5.03033C5.86032 5.17098 6.05109 5.25 6.25 5.25H9.25C9.44891 5.25 9.63968 5.17098 9.78033 5.03033C9.92098 4.88968 10 4.69891 10 4.5C10 4.30109 9.92098 4.11032 9.78033 3.96967C9.63968 3.82902 9.44891 3.75 9.25 3.75H6.25Z" fill="#1E58F0"/>
</svg>
