<svg width="18" height="20" viewBox="0 0 18 20" fill="none" xmlns="http://www.w3.org/2000/svg">
<path d="M9.50801 18.6481L9.49858 18.6498L9.43774 18.6798L9.4206 18.6833L9.4086 18.6798L9.34775 18.6498C9.33861 18.647 9.33175 18.6484 9.32718 18.6541L9.32376 18.6627L9.30919 19.0295L9.31347 19.0466L9.32204 19.0578L9.41117 19.1212L9.42402 19.1246L9.43431 19.1212L9.52344 19.0578L9.53372 19.0441L9.53715 19.0295L9.52258 18.6636C9.52029 18.6544 9.51544 18.6493 9.50801 18.6481ZM9.73512 18.5513L9.72397 18.553L9.56543 18.6327L9.55686 18.6413L9.55429 18.6507L9.56971 19.0192L9.574 19.0295L9.58086 19.0355L9.75311 19.1152C9.76397 19.1181 9.77225 19.1158 9.77797 19.1083L9.78139 19.0963L9.75226 18.5701C9.7494 18.5599 9.74369 18.5536 9.73512 18.5513ZM9.12236 18.553C9.11858 18.5507 9.11407 18.55 9.10976 18.5509C9.10545 18.5519 9.10167 18.5545 9.09922 18.5581L9.09408 18.5701L9.06494 19.0963C9.06551 19.1066 9.07037 19.1135 9.07951 19.1169L9.09237 19.1152L9.26462 19.0355L9.27319 19.0286L9.27662 19.0192L9.29119 18.6507L9.28862 18.6404L9.28005 18.6318L9.12236 18.553Z" fill="#77889A"/>
<path d="M1.20731 4.50076C3.69261 0.196907 9.19541 -1.27799 13.4993 1.20731C15.2047 2.19152 16.5402 3.70794 17.3011 5.52406C18.0619 7.34018 18.2061 9.35573 17.7114 11.2616C17.4389 12.3115 16.1603 12.6071 15.4335 11.901L15.3521 11.8153L13.423 9.5982C12.5634 8.61094 13.4436 7.12147 14.6896 7.34601L14.8036 7.37172L15.2476 7.48655C14.913 6.10747 14.1314 4.87789 13.0247 3.98957C11.918 3.10126 10.5485 2.60416 9.12969 2.5758C7.71088 2.54745 6.32257 2.98943 5.18129 3.83282C4.04001 4.67621 3.20993 5.87359 2.8205 7.2382C2.43108 8.60282 2.50421 10.0579 3.02849 11.3766C3.55277 12.6953 4.49872 13.8035 5.7188 14.5282C6.93889 15.2529 8.36452 15.5535 9.77333 15.383C11.1822 15.2125 12.495 14.5806 13.507 13.5858C13.6273 13.4674 13.7699 13.3739 13.9264 13.3106C14.0829 13.2473 14.2503 13.2154 14.4192 13.2168C14.588 13.2182 14.7549 13.2528 14.9103 13.3187C15.0658 13.3846 15.2067 13.4805 15.3251 13.6008C15.4435 13.7212 15.537 13.8637 15.6004 14.0202C15.6637 14.1767 15.6956 14.3442 15.6942 14.513C15.6928 14.6818 15.6581 14.8487 15.5922 15.0042C15.5263 15.1596 15.4305 15.3006 15.3101 15.419C12.4983 18.1854 8.0856 18.8624 4.50076 16.7927C0.196907 14.3074 -1.27799 8.80548 1.20731 4.50076ZM9.00002 3.42951C9.31944 3.42951 9.62743 3.54843 9.86397 3.7631C10.1005 3.97777 10.2486 4.27282 10.2795 4.59075L10.2855 4.71501V8.46782L12.0509 10.2332C12.285 10.466 12.4206 10.7799 12.4295 11.1099C12.4385 11.4399 12.3201 11.7606 12.099 12.0058C11.8779 12.2509 11.571 12.4015 11.2418 12.4265C10.9127 12.4516 10.5865 12.349 10.3309 12.1401L10.2332 12.0518L8.09074 9.9093C7.88059 9.69912 7.74976 9.42262 7.72052 9.12685L7.71452 9.00002V4.71501C7.71452 4.37408 7.84995 4.04711 8.09103 3.80603C8.33211 3.56495 8.65908 3.42951 9.00002 3.42951Z" fill="#77889A"/>
</svg>
