<svg width="16" height="17" viewBox="0 0 16 17" fill="none" xmlns="http://www.w3.org/2000/svg">
<path fill-rule="evenodd" clip-rule="evenodd" d="M15.7468 3.13778C15.8259 3.25796 15.8612 3.40177 15.8466 3.54494C15.8321 3.68811 15.7685 3.82186 15.6668 3.92362L8.00592 11.5836C7.92755 11.6619 7.82977 11.718 7.72259 11.7461L4.53175 12.5794C4.42628 12.607 4.31544 12.6064 4.21025 12.5778C4.10505 12.5493 4.00916 12.4937 3.93208 12.4166C3.855 12.3395 3.79943 12.2436 3.77086 12.1385C3.7423 12.0333 3.74174 11.9224 3.76925 11.8169L4.60259 8.62695C4.62751 8.53142 4.67333 8.44261 4.73675 8.36695L12.4259 0.682783C12.5431 0.565741 12.702 0.5 12.8676 0.5C13.0332 0.5 13.1921 0.565741 13.3093 0.682783L15.6668 3.03945C15.6959 3.07015 15.7226 3.10302 15.7468 3.13778ZM14.3409 3.48112L12.8676 2.00862L5.76925 9.10695L5.24842 11.1011L7.24259 10.5803L14.3409 3.48112Z" fill="#5450D6"/>
<path d="M14.2353 12.9245C14.4631 10.9777 14.5359 9.01602 14.4528 7.05779C14.4509 7.01163 14.4585 6.96558 14.4753 6.92254C14.4921 6.87951 14.5177 6.84043 14.5503 6.80779L15.3703 5.98779C15.3928 5.96525 15.4212 5.94967 15.4522 5.94291C15.4833 5.93615 15.5156 5.9385 15.5454 5.94967C15.5751 5.96085 15.601 5.98038 15.6199 6.00592C15.6389 6.03145 15.65 6.06191 15.652 6.09362C15.8059 8.41966 15.7474 10.7549 15.477 13.0703C15.2803 14.7553 13.927 16.0761 12.2495 16.2636C9.33729 16.5859 6.3984 16.5859 3.48618 16.2636C1.80952 16.0761 0.45535 14.7553 0.258683 13.0703C-0.0862276 10.1164 -0.0862276 7.13248 0.258683 4.17862C0.45535 2.49362 1.80868 1.17279 3.48618 0.985287C5.69656 0.74116 7.92344 0.681788 10.1437 0.807787C10.1755 0.810068 10.2059 0.821408 10.2314 0.840463C10.257 0.859519 10.2765 0.885491 10.2877 0.915304C10.2989 0.945117 10.3014 0.977523 10.2948 1.00868C10.2881 1.03984 10.2727 1.06845 10.2503 1.09112L9.42285 1.91779C9.3905 1.95016 9.35183 1.97552 9.30925 1.9923C9.26667 2.00907 9.22109 2.0169 9.17535 2.01529C7.32265 1.95183 5.46778 2.02285 3.62535 2.22779C3.08697 2.28738 2.58439 2.52672 2.19881 2.90716C1.81323 3.2876 1.56716 3.78692 1.50035 4.32445C1.16606 7.18138 1.16606 10.0675 1.50035 12.9245C1.56716 13.462 1.81323 13.9613 2.19881 14.3417C2.58439 14.7222 3.08697 14.9615 3.62535 15.0211C6.42118 15.3336 9.31452 15.3336 12.1112 15.0211C12.6496 14.9615 13.1521 14.7222 13.5377 14.3417C13.9233 13.9613 14.1685 13.462 14.2353 12.9245Z" fill="#5450D6"/>
</svg>
