<svg width="21" height="22" viewBox="0 0 21 22" fill="none" xmlns="http://www.w3.org/2000/svg">
<path d="M10.9305 21.3979L10.9186 21.4L10.8417 21.4379L10.82 21.4423L10.8049 21.4379L10.728 21.4C10.7164 21.3964 10.7078 21.3982 10.702 21.4054L10.6977 21.4163L10.6793 21.8798L10.6847 21.9014L10.6955 21.9155L10.8081 21.9957L10.8244 22L10.8374 21.9957L10.95 21.9155L10.963 21.8982L10.9673 21.8798L10.9489 21.4173C10.946 21.4058 10.9399 21.3993 10.9305 21.3979ZM11.2175 21.2755L11.2034 21.2776L11.0031 21.3784L10.9922 21.3892L10.989 21.4011L11.0085 21.8668L11.0139 21.8798L11.0226 21.8874L11.2403 21.9881C11.254 21.9917 11.2644 21.9888 11.2717 21.9794L11.276 21.9643L11.2392 21.2993C11.2356 21.2863 11.2283 21.2784 11.2175 21.2755ZM10.4432 21.2776C10.4384 21.2747 10.4327 21.2738 10.4272 21.275C10.4218 21.2762 10.417 21.2795 10.4139 21.2841L10.4074 21.2993L10.3706 21.9643C10.3713 21.9773 10.3775 21.9859 10.389 21.9903L10.4053 21.9881L10.6229 21.8874L10.6338 21.8787L10.6381 21.8668L10.6565 21.4011L10.6533 21.3881L10.6424 21.3773L10.4432 21.2776Z" fill="#1E58F0"/>
<path d="M18.9524 15.162C19.3696 15.1622 19.7708 15.3229 20.0727 15.6108C20.3746 15.8987 20.5542 16.2917 20.5743 16.7084C20.5943 17.1251 20.4533 17.5335 20.1804 17.8491C19.9075 18.1646 19.5236 18.3631 19.1084 18.4034L18.9524 18.4109H1.6245C1.20731 18.4107 0.806189 18.25 0.504258 17.9621C0.202327 17.6742 0.0227299 17.2812 0.00268122 16.8645C-0.0173675 16.4478 0.123669 16.0394 0.396567 15.7238C0.669464 15.4083 1.0533 15.2098 1.46854 15.1695L1.6245 15.162H18.9524ZM18.9524 7.58098C19.3833 7.58098 19.7965 7.75213 20.1011 8.05678C20.4058 8.36143 20.5769 8.77463 20.5769 9.20547C20.5769 9.63632 20.4058 10.0495 20.1011 10.3542C19.7965 10.6588 19.3833 10.83 18.9524 10.83H1.6245C1.19365 10.83 0.780456 10.6588 0.475804 10.3542C0.171152 10.0495 0 9.63632 0 9.20547C0 8.77463 0.171152 8.36143 0.475804 8.05678C0.780456 7.75213 1.19365 7.58098 1.6245 7.58098H18.9524ZM18.9524 0C19.3833 0 19.7965 0.171152 20.1011 0.475804C20.4058 0.780456 20.5769 1.19365 20.5769 1.6245C20.5769 2.05534 20.4058 2.46854 20.1011 2.77319C19.7965 3.07784 19.3833 3.24899 18.9524 3.24899H1.6245C1.19365 3.24899 0.780456 3.07784 0.475804 2.77319C0.171152 2.46854 0 2.05534 0 1.6245C0 1.19365 0.171152 0.780456 0.475804 0.475804C0.780456 0.171152 1.19365 0 1.6245 0H18.9524Z" fill="#1E58F0"/>
</svg>
