<svg width="18" height="21" viewBox="0 0 18 21" fill="none" xmlns="http://www.w3.org/2000/svg">
<path d="M9.26471 18.4361H9C6.49412 18.4361 4.36765 17.5414 2.62059 15.752C0.873529 13.9626 0 11.7846 0 9.21803C0 6.65144 0.873529 4.47346 2.62059 2.68407C4.36765 0.894691 6.49412 0 9 0C10.2529 0 11.4222 0.239307 12.5079 0.717922C13.5935 1.19654 14.5465 1.85626 15.3667 2.69709C16.1869 3.53792 16.8307 4.51394 17.298 5.62517C17.7653 6.73639 17.9993 7.93402 18 9.21803C18 11.64 17.3336 13.8903 16.0009 15.9689C14.6682 18.0475 12.9875 19.6742 10.9588 20.849C10.7824 20.9394 10.6059 20.9893 10.4294 20.9987C10.2529 21.0081 10.0941 20.9672 9.95294 20.8761C9.81176 20.785 9.68824 20.6676 9.58235 20.5237C9.47647 20.3798 9.41471 20.2081 9.39706 20.0086L9.26471 18.4361ZM8.97353 15.1555C9.27353 15.1555 9.52941 15.0471 9.74118 14.8302C9.95294 14.6133 10.0588 14.3512 10.0588 14.0439C10.0588 13.7367 9.95294 13.4746 9.74118 13.2577C9.52941 13.0408 9.27353 12.9324 8.97353 12.9324C8.67353 12.9324 8.41765 13.0408 8.20588 13.2577C7.99412 13.4746 7.88824 13.7367 7.88824 14.0439C7.88824 14.3512 7.99412 14.6133 8.20588 14.8302C8.41765 15.0471 8.67353 15.1555 8.97353 15.1555ZM6.67059 6.91353C6.86471 7.0039 7.05882 7.0086 7.25294 6.92762C7.44706 6.84665 7.60588 6.71543 7.72941 6.53396C7.88824 6.31706 8.07353 6.14969 8.28529 6.03185C8.49706 5.914 8.73529 5.85544 9 5.85616C9.42353 5.85616 9.76765 5.97799 10.0324 6.22163C10.2971 6.46528 10.4294 6.77724 10.4294 7.15753C10.4294 7.3925 10.3634 7.62747 10.2314 7.86244C10.0994 8.09741 9.86541 8.3866 9.52941 8.73002C9.08824 9.12766 8.76176 9.50289 8.55 9.85571C8.33824 10.2085 8.23235 10.5653 8.23235 10.9261C8.23235 11.143 8.30753 11.3284 8.45788 11.4824C8.60824 11.6364 8.78894 11.713 9 11.7123C9.21106 11.7116 9.38753 11.6303 9.52941 11.4683C9.67129 11.3064 9.77718 11.1166 9.84706 10.899C9.9353 10.5917 10.0941 10.3115 10.3235 10.0585C10.5529 9.80546 10.7647 9.57952 10.9588 9.3807C11.3294 9.00114 11.6075 8.62157 11.7932 8.24201C11.9788 7.86244 12.0713 7.48287 12.0706 7.10331C12.0706 6.27188 11.7925 5.60312 11.2362 5.09703C10.68 4.59094 9.93459 4.3379 9 4.3379C8.43529 4.3379 7.91471 4.47816 7.43824 4.75867C6.96176 5.03919 6.57353 5.4231 6.27353 5.91039C6.16765 6.10921 6.15424 6.30369 6.23329 6.49383C6.31235 6.68398 6.45812 6.82388 6.67059 6.91353Z" fill="#77889A"/>
</svg>
