<svg width="18" height="16" viewBox="0 0 18 16" fill="none" xmlns="http://www.w3.org/2000/svg">
<path d="M4.05 16H0.9C0.405 16 0 15.6 0 15.1111V6.22222C0 5.73333 0.405 5.33333 0.9 5.33333H4.05C4.545 5.33333 4.95 5.73333 4.95 6.22222V15.1111C4.95 15.6 4.545 16 4.05 16ZM10.575 0H7.425C6.93 0 6.525 0.4 6.525 0.888889V15.1111C6.525 15.6 6.93 16 7.425 16H10.575C11.07 16 11.475 15.6 11.475 15.1111V0.888889C11.475 0.4 11.07 0 10.575 0ZM17.1 7.11111H13.95C13.455 7.11111 13.05 7.51111 13.05 8V15.1111C13.05 15.6 13.455 16 13.95 16H17.1C17.595 16 18 15.6 18 15.1111V8C18 7.51111 17.595 7.11111 17.1 7.11111Z" fill="#77889A"/>
</svg>
