<svg width="14" height="16" viewBox="0 0 14 16" fill="none" xmlns="http://www.w3.org/2000/svg">
<path d="M2.5 15.5C2.04167 15.5 1.64945 15.3369 1.32334 15.0108C0.997225 14.6847 0.833892 14.2922 0.833336 13.8333V3C0.597225 3 0.399447 2.92 0.240003 2.76C0.0805585 2.6 0.000558429 2.40222 2.87356e-06 2.16667C-0.000552682 1.93111 0.0794474 1.73333 0.240003 1.57333C0.400559 1.41333 0.598336 1.33333 0.833336 1.33333H4.16667C4.16667 1.09722 4.24667 0.899445 4.40667 0.74C4.56667 0.580556 4.76445 0.500556 5 0.5H8.33334C8.56945 0.5 8.7675 0.58 8.9275 0.74C9.0875 0.9 9.16722 1.09778 9.16667 1.33333H12.5C12.7361 1.33333 12.9342 1.41333 13.0942 1.57333C13.2542 1.73333 13.3339 1.93111 13.3333 2.16667C13.3328 2.40222 13.2528 2.60028 13.0933 2.76083C12.9339 2.92139 12.7361 3.00111 12.5 3V13.8333C12.5 14.2917 12.3369 14.6842 12.0108 15.0108C11.6847 15.3375 11.2922 15.5006 10.8333 15.5H2.5ZM5 12.1667C5.23611 12.1667 5.43417 12.0867 5.59417 11.9267C5.75417 11.7667 5.83389 11.5689 5.83334 11.3333V5.5C5.83334 5.26389 5.75334 5.06611 5.59334 4.90667C5.43334 4.74722 5.23556 4.66722 5 4.66667C4.76445 4.66611 4.56667 4.74611 4.40667 4.90667C4.24667 5.06722 4.16667 5.265 4.16667 5.5V11.3333C4.16667 11.5694 4.24667 11.7675 4.40667 11.9275C4.56667 12.0875 4.76445 12.1672 5 12.1667ZM8.33334 12.1667C8.56945 12.1667 8.7675 12.0867 8.9275 11.9267C9.0875 11.7667 9.16722 11.5689 9.16667 11.3333V5.5C9.16667 5.26389 9.08667 5.06611 8.92667 4.90667C8.76667 4.74722 8.56889 4.66722 8.33334 4.66667C8.09778 4.66611 7.9 4.74611 7.74 4.90667C7.58 5.06722 7.5 5.265 7.5 5.5V11.3333C7.5 11.5694 7.58 11.7675 7.74 11.9275C7.9 12.0875 8.09778 12.1672 8.33334 12.1667Z" fill="#DD6F59"/>
</svg>
