<svg width="18" height="16" viewBox="0 0 18 16" fill="none" xmlns="http://www.w3.org/2000/svg">
<path d="M15 0H9C8.20435 0 7.44129 0.316071 6.87868 0.87868C6.31607 1.44129 6 2.20435 6 3V13C6 13.7956 6.31607 14.5587 6.87868 15.1213C7.44129 15.6839 8.20435 16 9 16H15C15.7956 16 16.5587 15.6839 17.1213 15.1213C17.6839 14.5587 18 13.7956 18 13V3C18 2.20435 17.6839 1.44129 17.1213 0.87868C16.5587 0.316071 15.7956 0 15 0ZM4 2C4.24493 2.00003 4.48134 2.08996 4.66437 2.25272C4.84741 2.41547 4.96434 2.63975 4.993 2.883L5 3V13C4.99972 13.2549 4.90212 13.5 4.72715 13.6854C4.55218 13.8707 4.31305 13.9822 4.05861 13.9972C3.80416 14.0121 3.55362 13.9293 3.35817 13.7657C3.16271 13.6021 3.0371 13.3701 3.007 13.117L3 13V3C3 2.73478 3.10536 2.48043 3.29289 2.29289C3.48043 2.10536 3.73478 2 4 2ZM1 3C1.24493 3.00003 1.48134 3.08996 1.66437 3.25272C1.84741 3.41547 1.96434 3.63975 1.993 3.883L2 4V12C1.99972 12.2549 1.90212 12.5 1.72715 12.6854C1.55218 12.8707 1.31305 12.9822 1.05861 12.9972C0.804163 13.0121 0.553621 12.9293 0.358167 12.7657C0.162714 12.6021 0.0371036 12.3701 0.00699997 12.117L0 12V4C0 3.73478 0.105357 3.48043 0.292893 3.29289C0.48043 3.10536 0.734784 3 1 3Z" fill="#77889A"/>
</svg>
